<?xml version="1.0" encoding="utf-8"?>
<!-- Generator: Adobe Illustrator 18.1.1, SVG Export Plug-In . SVG Version: 6.00 Build 0)  -->
<svg version="1.1" id="Layer_1" xmlns="http://www.w3.org/2000/svg" xmlns:xlink="http://www.w3.org/1999/xlink" x="0px" y="0px"
	 viewBox="0 0 190.3 47.6" enable-background="new 0 0 190.3 47.6" xml:space="preserve">
<g>
	<path fill="#E2F4FD" d="M9.3,22.6c-1.3-4.9,2.3-10.1,8.5-12.8s15-2.6,21.2,0.1C42.3,5,49.4,1.3,57.3,0.4s16.5,0.9,22.1,4.8
		c3.8-3.6,10.8-5.7,17.4-5.1s12.6,3.7,14.9,7.8c3-3.9,9.9-6.4,16.6-5.9c6.6,0.5,12.6,3.8,14.4,8.1c4.5-3.3,11.1-5.2,17.7-5.4
		c4.3-0.1,8.9,0.7,11.6,2.8c2.7,2.2,2.4,6-1.4,7.3c6.5-3,16.9-0.5,19.2,4.5c2.3,5-4.3,10.9-12.2,10.8c1,5.2-4.3,10.6-11.8,12.2
		c-7.6,1.6-16.6-0.8-20.3-5.4c-7.2,4.9-18.8,6.8-28.7,4.8c-5.5-1.1-10.8-3.4-16.5-2.9c-5.6,0.5-9.7,3.5-14.5,5.4
		C75.3,48.4,60.4,47,52.1,41c-4.2,5.2-14.5,7.9-23,5.9c-8.5-2-14-8.3-12.4-14.1c-4.1,3.5-14,2.5-16.3-1.7s4.4-9.1,11-8.1"/>
</g>
</svg>
