<?xml version="1.0" encoding="utf-8"?>
<!-- Generator: Adobe Illustrator 18.1.1, SVG Export Plug-In . SVG Version: 6.00 Build 0)  -->
<svg version="1.1" id="Layer_1" xmlns="http://www.w3.org/2000/svg" xmlns:xlink="http://www.w3.org/1999/xlink" x="0px" y="0px"
	 viewBox="0 0 227.2 60.8" enable-background="new 0 0 227.2 60.8" xml:space="preserve">
<g>
	<path fill="#E2F4FD" d="M24.1,40.5c-3.9,3.4-11.3,3.6-16.2,1.1C2.9,39.1,0.3,34.5,0,30C-0.3,25.2,2.3,20,7.9,17.8s14.2,0.2,14.9,5
		c3.6-4.1,7.2-8.2,12.1-11.3s11.4-5.3,17.8-4.6s12.3,4.8,12.4,9.6c2.8-7.1,10.4-13,19.7-15.3c6.8-1.7,14.7-1.5,21,1.1
		c6.3,2.6,10.9,7.7,11,13.2c2.9-7.8,13-13.8,23.8-14.1s21.4,5.2,25,12.9c4.2-5.1,11-9.1,18.8-10.3s16.5,0.7,21.7,5.3
		s6.2,11.7,1.8,16.7c6-3.5,16-0.7,18.5,4.7c2.5,5.4-1.9,11.8-8.8,14.1c-6.9,2.3-15.4,1-21.4-2.5c-5.6,6.2-14.5,10.6-24.3,12
		s-20.2-0.1-28.5-4.3c-9.3,6.6-22.2,10.1-34.9,9.7c-12.7-0.5-25.1-5-33.5-12.2c-3.2,5.9-10.1,10.7-18.3,12.5
		c-8.2,1.8-17.4,0.7-24.4-3c-6.7-3.6-11.2-11-6.3-16"/>
</g>
</svg>
