<?xml version="1.0" encoding="utf-8"?>
<!-- Generator: Adobe Illustrator 18.1.1, SVG Export Plug-In . SVG Version: 6.00 Build 0)  -->
<svg version="1.1" id="Layer_1" xmlns="http://www.w3.org/2000/svg" xmlns:xlink="http://www.w3.org/1999/xlink" x="0px" y="0px"
	 viewBox="0 0 215.9 45.6" enable-background="new 0 0 215.9 45.6" xml:space="preserve">
<g>
	<path fill="#E2F4FD" d="M66.5,8.6c11.6-6.2,27.4-9.3,42.7-8.5c3.9,0.2,7.9,0.7,11.3,2s5.8,3.6,5.5,6c5.9-3.9,14.7-6.1,23.4-5.8
		c8.7,0.2,17.1,2.9,22.4,7.1c5.2-2.8,13.3-3.5,19.5-1.7c6.3,1.8,10.4,6.1,10,10.3c8.9-0.2,16.5,5.7,14.2,11
		c-2.3,5.2-13.9,7.9-21.4,5c0.1,2.2-3.5,4-7.1,4.3c-3.6,0.4-7.3-0.2-10.9-0.6c-8.9-0.8-18,0-26.9,0.8c-8,0.7-16,1.5-24,2.2
		c-13.9,4.1-30.1,5.2-45.2,3.1c-3.9-0.5-7.8-1.3-11.9-1.2c-6.1,0.1-11.6,2.2-17.6,2.7c-9.7,0.9-20.1-2.6-24-8.1
		c-6.4,1.3-13.8,1.2-19.5-1.1c-5.6-2.3-8.8-6.9-6.4-10.7s10.9-6,16.6-3.8c-1.5-4.8,3-10,10.3-12s16.7-0.5,21.5,3.4
		c0.3-2.5,3.7-4.6,7.7-5c4-0.3,8.2,1.2,9.7,3.5"/>
</g>
</svg>
