<?xml version="1.0" encoding="utf-8"?>
<!-- Generator: Adobe Illustrator 18.1.1, SVG Export Plug-In . SVG Version: 6.00 Build 0)  -->
<svg version="1.1" id="Layer_1" xmlns="http://www.w3.org/2000/svg" xmlns:xlink="http://www.w3.org/1999/xlink" x="0px" y="0px"
	 viewBox="0 0 194.9 47.5" enable-background="new 0 0 194.9 47.5" xml:space="preserve">
<g>
	<path fill="#E2F4FD" d="M12.1,16.9c10.2-7.7,27.1-10.1,40.4-5.7c9.8-8.7,28.9-10.5,41.3-4c6-4.5,14.4-7.2,22.9-7.2s17,2.6,23,7.1
		c7-2.8,15-4.3,22.9-4.5c5.1-0.1,10.5,0.4,14.8,2.5s7.4,5.9,6.4,9.7c6.9,1.4,11.6,6.9,11,12.2s-5.7,10-12.3,12.2s-14.2,2-21,0.3
		c-7.9,6.4-20.4,9.3-31.7,7.5c-7.9-1.3-15.1-4.6-23.1-5.3c-16-1.4-31.7,7.9-47.2,4.7c-5.9-1.2-11.2-4.2-17.3-4.5
		c-6.5-0.4-12.5,2.2-18.9,3.1c-5.8,0.8-12.2,0.1-17-2.6C1.6,39.8-1.1,35,0.4,30.7s7.9-7.5,13.6-6.4c-0.3-1.6-0.6-3.2-0.9-4.8"/>
</g>
</svg>
