<?xml version="1.0" encoding="utf-8"?>
<!-- Generator: Adobe Illustrator 18.1.1, SVG Export Plug-In . SVG Version: 6.00 Build 0)  -->
<svg version="1.1" id="Layer_1" xmlns="http://www.w3.org/2000/svg" xmlns:xlink="http://www.w3.org/1999/xlink" x="0px" y="0px"
	 viewBox="0 0 187.1 54.3" enable-background="new 0 0 187.1 54.3" xml:space="preserve">
<g>
	<path fill="#E2F4FD" d="M0.5,26.5c-1.8-5.8,1.6-12.4,8-15.4s15.1-1.9,20.2,2.4c4.2-4.1,8.9-8.5,15.2-9.7s14.5,2.3,14,7.7
		c3.5-4.7,9.8-8,16.5-8.5s13.7,1.7,18.2,5.9c3.4-5.3,10.6-8.9,17.9-8.8c7.3,0.1,14.5,3.7,17.7,9.1c2.9-4.8,9.4-8.1,16-8.1
		s13,3.3,16,8.1c4.5-2,10.3-1.6,14.3,0.8c4.1,2.5,6.2,6.9,5.2,11c6.5,3.1,9.3,10.5,6,16.1c-3.3,5.6-12.1,8.4-19.1,6.2
		c-6.2,6.3-18.9,7.5-26.6,2.4c-7.5,4.1-16.9,5.1-25.9,5.9c-6.8,0.6-13.7,1.3-20.5,1.9c-7.3,0.7-14.9,1.4-21.9-0.4
		c-4-1-7.9-2.8-12.1-2.7c-3.7,0.1-7.1,1.8-10.8,2.4c-6.9,1-14.4-2.8-16.4-8.3c-4.5,5.2-13.9,7-20.7,4S1.2,38.4,3.7,32.4
		c-0.8-1.3-1.6-2.5-2.5-3.8"/>
</g>
</svg>
