<?xml version="1.0" encoding="utf-8"?>
<!-- Generator: Adobe Illustrator 18.1.1, SVG Export Plug-In . SVG Version: 6.00 Build 0)  -->
<svg version="1.1" id="Layer_1" xmlns="http://www.w3.org/2000/svg" xmlns:xlink="http://www.w3.org/1999/xlink" x="0px" y="0px"
	 viewBox="0 0 270.6 270.6" enable-background="new 0 0 270.6 270.6" xml:space="preserve">
<circle fill="#1B87C9" cx="135.3" cy="135.3" r="135.3"/>
<g>
	<path fill="#FFF278" d="M52.7,73.2c-0.7,24,9.7,38.2,28.4,50.6c10.2,6.8,4.4,23.1-10,36.3c-23.9,21.9-12,76.4,38.7,83.5
		c17.6,2.5,48.2,1.5,64.5-5.8c43-19.3,60.7-63,68.1-105.4c0.7-4.2-4.9,0.9-11.1,6.7c-7.1,6.7,6.4-15.3,2.3-14.8
		c-4.4,0.5-12.9,12.2-11.7,7.1c2.1-8.9,3.4-14.7,0.8-12c-40.3,42.7-68,33-76.6,32.1c-19.2-2.1-31.2-20.5-17.9-39
		c6.9-9.6,14.8-22.6,15.2-35.7C144.7,35.4,95.7,9,66.1,38.1C56.6,47.4,53.1,60.1,52.7,73.2z"/>
	<path fill="#FFD54E" d="M199,171.3c1-0.7,2.2,0.4,1.6,1.5c-26.1,47.1-51.3,50.6-74.5,49.9c-5.6-0.2-47.3-5.6-43.6-33.3
		C90.3,130.9,157.1,202.7,199,171.3z"/>
	<path fill="#FCB64E" d="M29.3,86l26.4,9.5c9.1-5.7,6.7-32-1.8-33.7L28.6,83.2C27.7,84.1,28.1,85.7,29.3,86z"/>
	<circle fill="#212121" cx="80.7" cy="64.6" r="7.2"/>
</g>
</svg>
