<?xml version="1.0" encoding="utf-8"?>
<!-- Generator: Adobe Illustrator 18.1.1, SVG Export Plug-In . SVG Version: 6.00 Build 0)  -->
<svg version="1.1" id="Layer_1" xmlns="http://www.w3.org/2000/svg" xmlns:xlink="http://www.w3.org/1999/xlink" x="0px" y="0px"
	 viewBox="0 0 224.5 224.5" enable-background="new 0 0 224.5 224.5" xml:space="preserve">
<circle fill="#1B87C9" cx="112.3" cy="112.3" r="112.3"/>
<g>
	<path fill="#FFF278" d="M180.8,60.7c0.6,19.9-8.1,31.7-23.5,42c-8.5,5.7-3.7,19.2,8.3,30.1c19.9,18.2,10,63.4-32.1,69.3
		c-14.6,2-40,1.2-53.5-4.9c-35.6-16-50.4-52.3-56.5-87.4c-0.6-3.5,4.1,0.7,9.2,5.6c5.9,5.5-5.3-12.7-1.9-12.3
		c3.6,0.4,10.7,10.1,9.7,5.9c-1.7-7.4-2.8-12.2-0.7-9.9c33.4,35.5,56.4,27.4,63.5,26.7c15.9-1.7,25.9-17,14.8-32.3
		c-5.8-8-12.3-18.8-12.6-29.6c-1-34.4,39.6-56.3,64.1-32.2C177.6,39.4,180.5,49.8,180.8,60.7z"/>
	<path fill="#FFD54E" d="M59.4,142.2c-0.8-0.6-1.8,0.3-1.3,1.2c21.7,39.1,42.5,42,61.8,41.4c4.6-0.1,39.3-4.6,36.2-27.6
		C149.6,108.7,94.2,168.2,59.4,142.2z"/>
	<path fill="#FCB64E" d="M200.2,71.3l-21.9,7.9c-7.5-4.8-5.6-26.6,1.5-28l21,17.8C201.6,69.7,201.3,71.1,200.2,71.3z"/>
	<circle fill="#212121" cx="157.6" cy="53.6" r="6"/>
</g>
</svg>
