<?xml version="1.0" encoding="utf-8"?>
<!-- Generator: Adobe Illustrator 18.1.1, SVG Export Plug-In . SVG Version: 6.00 Build 0)  -->
<svg version="1.1" id="Layer_1" xmlns="http://www.w3.org/2000/svg" xmlns:xlink="http://www.w3.org/1999/xlink" x="0px" y="0px"
	 viewBox="14.6 21.8 611.7 420.2" enable-background="new 14.6 21.8 611.7 420.2" xml:space="preserve">
<g>
	<path fill="#33439B" d="M17.7,366.4C2.6,277.5,46,240.1,85,221.8c42-19.8,44.8-27.9,65-64.2c12.4-22.4,17.7-47.6,27-71.2
		c9.3-23.7,24.4-47.1,49.5-57.9c29.5-12.7,65.6-5.4,97.3,5.3s63.3,24.9,96.6,25.2c38.3,0.4,74.4-17.6,112.7-13.9
		c45.2,4.4,83.6,41,91.5,81.3c7.8,40.2-12.2,81.4-45.9,107c-23.6,17.9-54.1,30.1-69.1,54.3c-23.6,37.9-0.7,92.3-29.3,127.3
		c-22,26.9-66.1,30.7-103.7,24.1c-37.7-6.6-74.1-21.1-112.3-22.7c-35.4-1.4-69.4,8.6-103.5,15.9c-34.1,7.2-51,10.5-84.4-1.8
		S21.5,389,17.7,366.4z"/>
</g>
<g>
	<g>
		<path fill="#1A237E" d="M430,144.9c5.5-4.8,12.3,0.1,18.3,0.7c4.4,0.4,8.2-1.4,11-4.8c0.5-0.7-0.4-1.5-0.9-0.9
			c-5.4,6.9-12.1,3.7-19.1,2.2c-3.7-0.7-7.3-0.6-10.2,2C428.5,144.5,429.4,145.4,430,144.9L430,144.9z"/>
	</g>
</g>
<g>
	<g>
		<path fill="#1A237E" d="M395.1,160.8c8.2-4.7,15.7-4,24.5-1.8c4.2,1.1,8.8,1,11.5-2.9c0.4-0.7-0.7-1.2-1.1-0.7
			c-4.3,6.3-13.9,0.7-19.9,0.3c-5.6-0.2-10.9,1.2-15.6,3.9C393.7,160.1,394.4,161.2,395.1,160.8L395.1,160.8z"/>
	</g>
</g>
<g>
	<g>
		<path fill="#1A237E" d="M333.2,149.4c6.6,3,14,3.6,20.8,1c3.6-1.3,6.7-3.6,10-5.3c5.5-2.9,15.4-4.8,17,3.7
			c0.2,0.7,1.3,0.4,1.2-0.3c-1.5-8-10.6-8.2-16.6-5.6c-4.5,2-8.4,5.2-13.1,6.7c-6.2,1.9-12.7,1.3-18.5-1.3
			C333.1,148,332.5,149,333.2,149.4L333.2,149.4z"/>
	</g>
</g>
<g>
	<g>
		<path fill="#1A237E" d="M368.6,121.4c1.4-3.4,6.8-1.7,9.2-0.5c1.2,0.6,2.5,1.4,4,1.2c1.9-0.2,2.9-1.7,2.7-3.4
			c-0.1-0.8-1.3-0.4-1.2,0.3c0.5,3.7-5.8,0.2-6.8-0.2c-1.5-0.5-3.2-0.7-4.7-0.6c-1.9,0.2-3.5,1-4.2,2.8
			C367.1,121.8,368.4,122.2,368.6,121.4L368.6,121.4z"/>
	</g>
</g>
<g>
	<g>
		<path fill="#1A237E" d="M479.6,165.5c3.3-3.2,7.9-4.7,12.5-3.3c2.7,0.8,5.1,2.6,7.9,3.1c4.7,0.7,8.9-1.7,11.1-5.8
			c0.3-0.7-0.7-1.3-1.1-0.7c-2.2,4.2-6.6,6.2-11.2,4.9c-3.1-0.9-5.5-2.8-8.7-3.2c-4.3-0.5-8.3,1.2-11.4,4.1
			C478.1,165.2,479,166.1,479.6,165.5L479.6,165.5z"/>
	</g>
</g>
<g>
	<g>
		<path fill="#1A237E" d="M520,150.4c1.6-2.6,4.1-3.2,6.8-2.2c1.2,0.4,2.6,0.9,3.9,0.6c1.7-0.5,2.7-2.1,1.9-3.7
			c-0.3-0.7-1.4-0.1-1.1,0.7c-0.3,1.7-1.2,2.2-2.2,1.9c-0.5,0-0.9-0.2-1.4-0.3c-0.5-0.2-0.9-0.3-1.4-0.5c-0.9-0.2-1.9-0.3-2.8-0.2
			c-2,0.3-3.6,1.6-4.7,3.2C518.5,150.4,519.6,151,520,150.4L520,150.4z"/>
	</g>
</g>
<g>
	<g>
		<path fill="#1A237E" d="M500.8,124.6c2.4-3.6,5.9-2.6,9.3-1.5c1.5,0.4,3.2,1,4.7,0.2c1.8-1,2-3.3,0.1-4.3
			c-0.7-0.3-1.3,0.7-0.7,1.1c-0.1,2-0.7,2.7-2.1,2.3c-0.4,0-0.8-0.1-1.2-0.2c-0.8-0.2-1.7-0.6-2.5-0.8c-1.3-0.4-2.7-0.7-4.1-0.4
			c-2,0.3-3.5,1.6-4.7,3.2C499.3,124.6,500.4,125.2,500.8,124.6L500.8,124.6z"/>
	</g>
</g>
<g>
	<g>
		<path fill="#1A237E" d="M475.1,157.4c-1.9-0.7-4-1.2-6.1-0.6c-0.8,0.2-1.5,0.7-2.2,1.2c-0.4,0.3-0.8,0.7-1.2,0.9
			c-1.3,1.2-2.8,0.8-4.4-1c0.2-0.7-0.9-1.1-1.2-0.3c-0.7,1.9,0.7,3.6,2.7,3.7c1.6,0.1,2.8-0.8,4.1-1.7c2.6-1.8,4.8-1.9,7.9-0.9
			C475.5,158.9,475.9,157.6,475.1,157.4L475.1,157.4z"/>
	</g>
</g>
<g>
	<g>
		<path fill="#1A237E" d="M157.1,216.3c4.8-7.8,10.5,0.8,16.3,1c3.4,0.1,6.2-2,7.6-5c0.3-0.7-0.7-1.3-1.1-0.7
			c-1.9,4.1-6.2,5.3-10.1,3.2c-1.9-1-3.7-2.6-5.8-3c-3.3-0.7-6.2,1-8,3.7C155.6,216.3,156.7,216.9,157.1,216.3L157.1,216.3z"/>
	</g>
</g>
<g>
	<g>
		<path fill="#1A237E" d="M154.1,239.7c6.2-4.9,11.7,1.4,18.2,1c2.7-0.2,5.1-1.5,6.2-4.1c0.3-0.7-0.7-1.3-1.1-0.7
			c-2.9,6.9-11.2,1.4-16.1,0.7c-3.1-0.5-5.6,0.2-8,2.2C152.6,239.3,153.6,240.2,154.1,239.7L154.1,239.7z"/>
	</g>
</g>
<g>
	<g>
		<path fill="#1A237E" d="M190.8,259.5c9.1-13.6,26,8.7,35-4.3c0.5-0.7-0.6-1.2-1.1-0.7c-5.7,8.2-16.1,0.1-23.3-0.9
			c-4.8-0.7-9,1.2-11.7,5.2C189.2,259.5,190.3,260.1,190.8,259.5L190.8,259.5z"/>
	</g>
</g>
<g>
	<g>
		<path fill="#1A237E" d="M269,244.4c5.7-7.1,11.6-0.3,18.1,0.2c3.2,0.2,5.8-1.1,6.8-4.2c0.2-0.7-0.9-1.1-1.2-0.3
			c-2.5,7.6-12.1-0.2-16.7-0.5c-3.2-0.2-6,1.3-8,3.7C267.6,244.2,268.5,245.1,269,244.4L269,244.4z"/>
	</g>
</g>
<g>
	<g>
		<path fill="#1A237E" d="M275.1,223.9c0.4-4.7,9.8,0.2,12.1,0.6c1.8,0.3,3.8,0.6,5.5-0.3c2.5-1.3,2.9-4.2,0.6-5.8
			c-0.7-0.4-1.3,0.7-0.7,1.1c-0.5,3.2-1.8,4.6-4,4c-0.8-0.1-1.6-0.2-2.3-0.4c-1.4-0.3-2.7-1-4.1-1.5c-1.4-0.6-2.9-1.4-4.5-1.2
			c-2.2,0.2-3.7,1.6-3.8,3.7C273.8,224.6,275.1,224.6,275.1,223.9L275.1,223.9z"/>
	</g>
</g>
<g>
	<g>
		<path fill="#1A237E" d="M235.4,262.7c5.6-5.2,12.7,1.3,19.1,0c3.3-0.7,5.6-3.3,5.3-6.7c-0.1-0.8-1.3-0.8-1.2,0
			c0.3,3.6-3.1,5.7-6.2,5.7c-1.4,0-2.8-0.3-4.2-0.7c-2.2-0.5-4.2-1.3-6.4-1.5c-2.7-0.2-5.1,0.5-7.2,2.3
			C233.9,262.4,234.9,263.2,235.4,262.7L235.4,262.7z"/>
	</g>
</g>
<g>
	<g>
		<path fill="#1A237E" d="M88.2,318.7c1.2-1.6,3.2-2.5,5.2-2.1c1.2,0.2,2.3,1.3,3.6,1.4c1.7,0.2,3-1.2,2.2-2.8
			c-0.3-0.7-1.4-0.1-1.1,0.7c-0.8,0.7-1.7,0.9-2.3,0.4c-0.2-0.2-0.6-0.3-0.9-0.5c-0.4-0.2-0.7-0.3-1.2-0.4c-0.7-0.2-1.5-0.2-2.2-0.1
			c-1.8,0.2-3.2,1.2-4.2,2.7C86.7,318.8,87.8,319.4,88.2,318.7L88.2,318.7z"/>
	</g>
</g>
<g>
	<g>
		<path fill="#1A237E" d="M138.7,322.1c3.9-3.5,7.2,0,11.3-0.7c2-0.3,3.3-1.7,3.2-3.7c0-0.8-1.2-0.8-1.2,0c-1,0.8-2,1.7-3,2.6
			c-0.6-0.1-1.2-0.2-1.7-0.2c-0.6-0.2-1.2-0.3-1.8-0.5c-1.1-0.2-2.1-0.4-3.2-0.3c-1.7,0.2-3.2,1-4.4,2.1
			C137.2,321.8,138.2,322.6,138.7,322.1L138.7,322.1z"/>
	</g>
</g>
<g>
	<g>
		<path fill="#1A237E" d="M125.1,350.3c5.7-6.4,14.2,7.2,20.5,0.2c0.5-0.6-0.3-1.5-0.9-0.9c-5.7,6.4-14.2-7.2-20.5-0.2
			C123.7,349.9,124.6,350.9,125.1,350.3L125.1,350.3z"/>
	</g>
</g>
<g>
	<g>
		<path fill="#1A237E" d="M69.1,366.6c2.6,1.7,5.5,2.2,8.4,1.1c1.9-0.7,3.4-2.3,5.3-3.2c3.3-1.4,6.7-0.6,9.2,2
			c0.6,0.6,1.4-0.3,0.9-0.9c-2.2-2.2-5.2-3.5-8.3-3c-5.7,0.9-8.6,7.1-14.8,2.9C69.1,365.1,68.4,366.2,69.1,366.6L69.1,366.6z"/>
	</g>
</g>
<g>
	<g>
		<path fill="#1A237E" d="M116.2,371.6c9.2,12.3,24.2-13,32.9,1c0.4,0.7,1.5,0.1,1.1-0.7c-2.4-3.9-6.6-5.7-11.1-4.7
			c-6.4,1.5-16,11.5-21.7,3.7C116.8,370.3,115.7,371,116.2,371.6L116.2,371.6z"/>
	</g>
</g>
<g>
	<g>
		<path fill="#1A237E" d="M192.2,332.5c3.1-1.2,5.9-1.2,9.1-0.2c2,0.6,4,1.4,6.1,1.1c2.6-0.3,4.2-2.1,4.4-4.6c0.1-0.8-1.2-0.8-1.2,0
			c-0.5,6.3-9.4,1.7-12.4,1.5c-2.2-0.2-4.2,0.2-6.2,1.1C191.2,331.5,191.5,332.8,192.2,332.5L192.2,332.5z"/>
	</g>
</g>
<g>
	<g>
		<path fill="#1A237E" d="M199.2,315.3c2.6-2.7,6.4,2.1,9.4,1.8c2-0.2,3.3-1.8,2.8-3.7c-0.2-0.7-1.4-0.4-1.2,0.3
			c-0.2,0.6-0.2,1.1-0.4,1.7c-1.2,0.7-2.3,0.7-3.3,0.1c-0.6-0.2-1.1-0.6-1.6-0.8c-0.9-0.5-1.8-1.1-2.8-1.2c-1.4-0.3-2.7,0.1-3.7,1.1
			C197.7,315,198.7,315.9,199.2,315.3L199.2,315.3z"/>
	</g>
</g>
<g>
	<g>
		<path fill="#1A237E" d="M194.8,369.3c3.6-6.7,12.1,1.2,17.3,0.2c2.7-0.5,4.4-2.4,4.6-5.1c0.1-0.8-1.2-0.8-1.2,0
			c-0.6,8.1-12.3,0.9-15.9,0.9c-2.6,0-4.7,1.1-5.8,3.3C193.4,369.4,194.5,370,194.8,369.3L194.8,369.3z"/>
	</g>
</g>
<g>
	<g>
		<path fill="#1A237E" d="M224.7,379.2c3.2-1.7,6.3-1.7,9.8-0.7c1.6,0.4,3.1,1.1,4.7,1c2.5-0.2,4.2-1.8,3.9-4.4
			c-0.1-0.7-1.3-0.8-1.2,0c0.7,5.7-8.2,1.6-10.7,1.5c-2.5-0.2-4.8,0.5-7,1.7C223.4,378.5,224,379.6,224.7,379.2L224.7,379.2z"/>
	</g>
</g>
<g>
	<g>
		<path fill="#1A237E" d="M267.3,380.7c2.3,1,4.4,0.7,6.7-0.3c5-2.2,8.3-6.2,14.1-2.6c3,1.8,7.9,3.7,9.2-1c0.2-0.7-1-1.1-1.2-0.3
			c-1.3,5.1-7.2,0.2-9.4-0.9c-1.5-0.7-2.9-0.9-4.6-0.6c-5.2,0.9-8.8,6.9-14.5,4.6C266.9,379.2,266.6,380.4,267.3,380.7L267.3,380.7z
			"/>
	</g>
</g>
<g>
	<g>
		<path fill="#1A237E" d="M248.2,362.2c5.1-4.2,10.9,4.1,16.5,2.5c0.9-0.2,1.7-0.9,2.6-1.3c1.7-1.5,3.7-1.7,6.2-0.7
			c0.3,0.2,0.6,0.5,0.9,0.7c1.7,0.6,2,1.2,3.8,0.8c0.7-0.2,0.4-1.4-0.3-1.2c-2.7,0.6-4.6-3.2-7.5-2.7c-1.1,0.2-1.7,0.7-2.7,1.2
			c-2.9,1.6-5.2,2.7-8.7,1.2c-4-1.8-7.7-4.7-11.7-1.3C246.7,361.8,247.6,362.7,248.2,362.2L248.2,362.2z"/>
	</g>
</g>
<g>
	<g>
		<path fill="#1A237E" d="M254.1,343.7c5.4-4.6,8.8,1.3,14.1,0.9c2.7-0.2,4.8-1.9,5.9-4.3c0.3-0.7-0.7-1.3-1.1-0.7
			c-1.6,3.4-4.7,4.2-7.9,3.1c-1.7-0.6-3.1-1.7-4.9-2.1c-2.7-0.4-5,0.5-7.1,2.2C252.6,343.3,253.4,344.2,254.1,343.7L254.1,343.7z"/>
	</g>
</g>
<g>
	<g>
		<path fill="#1A237E" d="M320,369.7c5.2-3.6,8.8,0.2,14.1,0.2c2.4,0,4.2-1.2,5.2-3.4c0.3-0.7-0.9-1.1-1.2-0.3
			c-2,4.9-8.4,0.9-11.8,0.6c-2.5-0.2-4.7,0.5-6.7,1.9C318.7,369,319.3,370.1,320,369.7L320,369.7z"/>
	</g>
</g>
<g>
	<g>
		<path fill="#1A237E" d="M351,358.6c1.2-1.4,4.2-1.9,5.9-1.7c1.2,0.2,2.4,1,3.6,1.4c1.1,0.4,2.2,0.8,3.2,0.9
			c2.1,0.2,3.8-0.6,5.1-2.2c0.5-0.7-0.6-1.2-1.1-0.7c-0.9,1.2-3.3,1.7-4.8,1.4c-1.2-0.2-2.2-0.7-3.2-1.2c-1.4-0.6-2.8-1.2-4.3-1.3
			c-2.2-0.2-3.8,0.7-5.2,2.4C349.7,358.3,350.5,359.2,351,358.6L351,358.6z"/>
	</g>
</g>
<g>
	<g>
		<path fill="#1A237E" d="M351.9,343.8c3.2-5.3,9.8,1.1,14.2,0.7c2-0.2,3.4-1.4,2.9-3.5c-0.2-0.7-1.4-0.4-1.2,0.3
			c0.8,3.9-6.9,0.6-7.8,0.2c-1.2-0.5-2.5-1-3.8-1.1c-2.3-0.2-4.2,0.7-5.4,2.7C350.4,343.8,351.5,344.4,351.9,343.8L351.9,343.8z"/>
	</g>
</g>
<g>
	<g>
		<path fill="#1A237E" d="M363.9,325.8c2.5-6.2,10.9,1.7,15.2,0.8c2.4-0.5,4-2.5,3.7-4.9c-0.1-0.7-1.3-0.8-1.2,0
			c0.9,7-8,2.3-9.9,1.5c-1.3-0.6-2.7-1.1-4.2-1c-2.2,0.1-3.9,1.2-4.7,3.2C362.4,326.2,363.5,326.6,363.9,325.8L363.9,325.8z"/>
	</g>
</g>
<g>
	<g>
		<path fill="#1A237E" d="M331.5,319.1c4-7,12.7,0.2,18.5-1.9c2.7-1,4-3.8,2.3-6.3c-0.4-0.7-1.5,0-1.1,0.7c0.1,3.3-1,4.9-3.3,4.7
			c-0.8,0.2-1.7,0.1-2.5-0.1c-1.4-0.2-2.7-0.6-4.1-0.8c-1.7-0.3-3.4-0.7-5.2-0.5c-2.5,0.3-4.4,1.4-5.7,3.6
			C330.1,319.2,331.2,319.8,331.5,319.1L331.5,319.1z"/>
	</g>
</g>
<g>
	<path fill="#F1592B" d="M123.1,312.2c3,1.1,5.9,2.5,8.6,4.2c-2.4,1.6-5,2.8-7.7,3.6c-0.3,0.1-0.7,0.2-1,0c-0.2-0.2-0.3-0.5-0.4-0.8
		c-0.2-1.4-0.5-2.7-0.7-4.2c-0.1-0.5-0.2-1.1,0-1.6c0.2-0.5,0.7-1,1.2-0.9"/>
</g>
<g>
	<path fill="#F1592B" d="M182.9,316.6c2.4,0.4,4.8,0.8,7.2,1.2c0.3,0.1,0.7,0.2,0.7,0.5c0.1,0.4-0.2,0.7-0.6,0.9
		c-2.6,1.5-5.2,3.1-7.8,4.6c-0.2-2.5-0.3-4.9-0.5-7.4c0.4,0,0.7,0.1,1.2,0.1"/>
</g>
<g>
	<path fill="#F1592B" d="M245.6,315.8c-0.2,0-0.6-0.1-0.8-0.1c3.6,0.7,7.1,1.7,10.5,3.2c-3.2,2.1-6.7,3.6-10.3,4.4
		c-0.2-2.4-0.5-4.9-0.7-7.3C244.6,316,245,316,245.6,315.8"/>
</g>
<g>
	<path fill="#F1592B" d="M344.1,273.9c6.2,2.6,12.3,5.2,18.5,7.8c-6.7,1.9-13.6,3.7-20.3,5.7c-0.9-2.7-1.2-5.7-0.7-8.5
		c0.3-2.1,1.2-4.5,3.3-5.1"/>
</g>
<g>
	<path fill="#F1592B" d="M280.2,177.5c4.6,2.2,9.1,4.2,13.6,6.4c-4.8,1.7-9.7,3.5-14.5,5.2c-0.8,0.3-1.7,0.6-2.6,0.2
		c-1-0.5-1.2-1.8-1.2-3c0-1.9,0.2-3.8,0.7-5.7c0.2-1,0.7-1.9,1.4-2.6c0.7-0.7,2.1-0.7,2.7,0.1"/>
</g>
<g>
	<path fill="#F1592B" d="M388,91.6c-3.9,2-7.9,4.1-11.8,6.1c1,1.2,2.7,1.5,4.2,1.7c3.7,0.6,7.4,1.2,11.2,1.8
		c-0.3-2.4-0.6-4.8-0.9-7.2c-0.1-0.7-0.2-1.4-0.6-2c-0.3-0.6-1.1-1.1-1.7-0.9c-0.7,0.2-1.2,1-0.7,1.6"/>
</g>
<g>
	<path fill="#F1592B" d="M472.9,110.3c-2.7,1.3-5.5,2.7-8.2,4.1c-0.3,0.2-0.7,0.3-0.7,0.7c0,0.4,0.5,0.6,0.9,0.7
		c2.4,0.6,4.9,1.2,7.3,1.7c0.4,0.1,0.8,0.2,1.2,0c0.4-0.2,0.5-0.8,0.6-1.3c0.1-2.1-0.2-4.1-1-6.1"/>
</g>
<g>
	<path fill="#FEEA39" d="M404.1,78.9c10.4,0,15.9,13.2,8.7,22.5c-2.1,2.7-6.1,6.4-7.2,12.6c-0.7,3.7,3.6,4.8,7.1,6.3
		c2.2,1,4.8,0.6,7.2-0.1c7.7-2.2,14.6-7.2,19.1-14c0.3,2.2,0.7,4.5,1,6.7c2.9-1.8,5.9-3.6,8.8-5.4c-0.4,2.9-0.7,5.8-1.2,8.7
		c1.9-1.7,3.8-3.3,5.7-5.1c-2.6,10.8-8.2,20.8-16.2,28.5c-5.2,5-11.4,9.2-18.4,11c-7,1.8-14.1-0.2-20.9-2.4
		c-8.3-2.7-13.2-9.9-12.8-17.1c0.2-4,4.5-8.7,6.3-12.2c1.7-3.3,5.1-5.5,3.4-9.3c-1.2-2.9-3.2-6.1-5.8-7.7
		C385,99.3,383.6,78.9,404.1,78.9z"/>
</g>
<g>
	<path fill="#FEEA39" d="M480.5,101.4c4.7-1,9.9,0.9,12.7,4.7s3.3,9.3,1.1,13.6c-1.7,3.1-6.4,6.1-6.3,9.6c0.1,3.1,3.7,6.2,6.7,6.7
		c3,0.5,7.2-1.5,9.7-3.4c2.4-1.8,4.3-4.3,6.2-6.8c0,2.2-0.1,4.3-0.1,6.5c2.2-1.6,4.4-3.2,6.6-4.7c0.2,2-0.7,5.4-0.5,7.4
		c1.5-1.5,4-4.4,5.5-5.9c-0.3,0.3-0.2,2.7-0.2,3.2c-0.2,1.2-0.4,2.5-0.7,3.7c-0.6,2.3-1.4,4.6-2.5,6.7c-2.1,4.1-5.3,7-8.9,9.9
		c-7,5.7-24.5,5.2-24.6,5.2c-4.7-0.6-13.1-3.2-14-7.7c-2.9-14,14.6-14.4,6.9-24.1c-3.9-5.1-5.9-2.7-7.2-11.7
		C470.1,110.3,476,102.4,480.5,101.4z"/>
</g>
<g>
	<path fill="#FEEA39" d="M222.5,216.7c7.6,2.2,16.1,0.9,22.7-3.5c2.9-2,5.7-5,5.5-8.5c-0.2-3.2-2.7-5.7-4.5-8.2
		c-5.2-7.1-7-18.1-3.2-26c3.7-7.9,13.1-12.1,21.8-11.2c8.7,0.9,16.9,9.2,16.9,17.9c0,18.6-12.2,15.6-14,32
		c-0.7,5.9,4.6,11.4,4.7,17.3c0.1,10.5-6,20.6-14.9,26c-8.9,5.5-20.1,6.7-30.2,3.7c-10.1-2.8-18.8-9.5-25.1-17.8
		c-6.2-8.3-10.2-21-12.1-31.2c2.3,1,4.7,4.5,7.1,5.5c-0.1-2.3,1.5-5.9,1.4-8.3c3,1.3,4.7,4.9,7.7,6.2c-0.1-2.5,0.5-6.5,0-8.9
		C206.3,202,214.9,214.4,222.5,216.7z"/>
</g>
<g>
	<path fill="#FEEA39" d="M77.9,328.8c28.3,19.1,32.7,0.9,29.9-1.8c-3.7-3.5-5.5-6.5-6.4-9.6c-1.2-4.3,2.1-9.7,5.8-12.2
		c3.7-2.5,10.2-1.1,13.7,1.7c3.5,2.8,4.4,9.3,2.7,13.5c-1.3,3.4-8.9,6.2-6.3,8.9c10.2,10.6,5.4,17.2,3.5,19.6
		c-6.4,7.7-18.9,9.5-28.1,5.7C83.3,350.9,77,338.8,77.9,328.8z"/>
</g>
<g>
	<path fill="#FEEA39" d="M137.4,330.8c5.6,5.6,32,11.8,29.8,2.1c-0.7-2.9-2.5-4.7-4.2-6.7c-3.7-4.5-3.2-11.7,0.9-15.8
		c4.2-4.1,11.3-4.4,15.9-0.8c4.6,3.6,6.1,10.5,3.6,15.6c-1.3,2.7-8,6.5-5.5,8.2c12.1,8.2,6.1,18.4,1,21.5
		c-5.1,3.1-24.7,6.2-34.8-4.4C140,346,138.1,338.7,137.4,330.8z"/>
</g>
<g>
	<path fill="#FEEA39" d="M205,331.5c2.2,2.4,7.7,6.4,10.6,8.2c7.7,4.7,12.5,1.4,15,0.6c2.5-0.9,1.8-7.3,0.4-9.8
		c-1.8-3.2-9.7-4.8-6.2-15.8c0.8-2.5,4.8-7.6,11.7-7.5c3,0.1,8.9,4,10,6.8c4.4,11.9-6.4,12.4-5.8,19.3c0.5,5.7,8.7,9.5,8.2,15.1
		c-0.2,2.3-1.9,4.1-3.4,5.9c-7.5,9.3-28.7,4.9-34.1-0.9c-2.5-2.7-4.7-6.7-5.2-10.4C205.5,339.1,204.7,335.1,205,331.5"/>
</g>
<g>
	<path fill="#FEEA39" d="M279.9,309c3.2,4.3,8.7,8.4,13.2,11.2c4.6,2.8,10.1,4.4,15.4,3.5c5.3-0.9,10.2-4.5,12-9.7
		c2-6-0.5-12.5-3.6-18c-3.1-5.5-6.8-10.9-7.6-17.1c-0.8-7.7,3.7-15.7,10.8-19c7.1-3.2,16.1-1.3,21.3,4.5c5.2,5.7,6.2,15,2.2,21.7
		c-2.7,4.7-7.6,8.2-9.2,13.5c-1.5,5.1,0.3,10.5,2.9,15.1c2.6,4.6,5.8,8.9,7.4,13.9c3,9.5-0.8,20.3-8.2,27
		c-7.3,6.7-17.6,9.6-27.5,9.3c-12.1-0.2-24.1-4.9-33.1-13c-9.1-8-14.1-21.8-15.8-33.8c3.8,2.2,6.8,5.1,10,6.1
		c-0.5-4.4-2.5-9.2-3-13.6c4.1,2.9,8.1,5.8,12.2,8.7C279.7,316,279.8,312.5,279.9,309z"/>
</g>
<g>
	<path fill="#FED600" d="M206.7,218.4c4.1,4.2,11.2,8.1,17,9.3c5.7,1.2,11.8,0.7,17.3-1.4c2.4-0.9,4.7-2.2,7.3-2.1
		c4,0.2,7.2,4.2,7.2,8.2c0.1,4-2.6,7.8-6,9.9c-3.4,2.1-7.6,2.9-11.6,3c-7.7,0.2-15.7-1.9-21.8-6.7
		C210.2,233.8,206.2,226.2,206.7,218.4"/>
</g>
<g>
	<path fill="#FED600" d="M285.6,333.3c8.3,4.4,20.5,6.3,29.3,2.8c2.7-1,5.2-2.4,7.8-3.1c2.7-0.7,5.8-0.6,8.1,1.2
		c3.2,2.4,3.4,7.5,1.2,10.9s-6,5.4-9.9,6.4c-7.1,1.9-14.8,1.2-21.4-1.8C294.2,346.6,288.7,340,285.6,333.3z"/>
</g>
<g>
	<path fill="#FED600" d="M213.1,344.9c5.2,11.7,15.1,11.7,18.5,10.3c1.3-0.5,6.9-1.7,6.4-6.9c-0.6-5.7-7.2-1.7-8.1-1.2
		C222.1,352.3,213.1,344.9,213.1,344.9z"/>
</g>
<g>
	<path fill="#FED600" d="M148.5,342.9c4.2,5.5,8.8,10.4,15.7,10.7c1.7,0.1,15.1-1,9.8-8.8c-3-4.4-8.7,0.1-10.5,0.5
		C158.7,346.4,153,345,148.5,342.9z"/>
</g>
<g>
	<path fill="#FED600" d="M86.9,341.9c4.7,5.1,10.7,9.5,17.6,9.7c6.8,0.2,11.2-1.2,10.2-6.7c-1.1-6.2-7.9-1.3-14.6-0.7
		C96.3,344.6,90.6,342.8,86.9,341.9z"/>
</g>
<g>
	<path fill="#FED600" d="M436.6,124.9c-6.9,14.8-13.7,16.5-22.3,17.7c-2.2,0.3-12.3-0.9-12.3-7.9c0-5.2,7.2-5.4,9.6-5.2
		c3.9,0.4,6.2,2.2,10.1,1.8C425.5,131.1,433.9,127.7,436.6,124.9z"/>
</g>
<g>
	<path fill="#FED600" d="M507.6,140.7c-1.4,7.9-10.8,11.8-17.5,11.7c-1.1,0-8-1.8-6.7-6.4c0.7-2.4,3-3.6,5-3.8
		C490.4,141.8,500.9,145.9,507.6,140.7z"/>
</g>
<g>
	<g>
		<path fill="#212121" d="M117.3,314.7c1.3,0,1.3-2.1,0-2.1C115.9,312.7,115.9,314.7,117.3,314.7L117.3,314.7z"/>
	</g>
</g>
<g>
	<g>
		<path fill="#212121" d="M178.5,317.1c0-0.1,0-0.1,0-0.2c0-1.3-2.1-1.3-2.1,0c0,0.1,0,0.1,0,0.2
			C176.4,318.5,178.5,318.5,178.5,317.1L178.5,317.1z"/>
	</g>
</g>
<g>
	<g>
		<path fill="#212121" d="M240.8,318.3c1.3,0,1.3-2.1,0-2.1C239.4,316.2,239.4,318.3,240.8,318.3L240.8,318.3z"/>
	</g>
</g>
<g>
	<g>
		<path fill="#212121" d="M335.7,272.5c-0.4,0-0.9,0-1.3,0.2c-0.3,0.2-0.5,0.7-0.6,1.2c-0.1,0.7,0.2,1.3,0.7,1.7
			c1.2,0.9,3.1,0.2,3.2-1.4c0.1-1.5-1.6-2.7-2.9-1.9c-1.4,0.8-1,3.2,0.8,3.2c0.9,0,1.6-0.7,1.6-1.7c0-1-1.1-1.7-2-1.4
			c-1.3,0.3-0.7,2.3,0.6,2c-0.3,0.1-0.7-0.2-0.6-0.7c0.1-0.2,0.2-0.3,0.4-0.3c0.2,0,0.5,0.2,0.5,0.4c-0.1,0.2-0.2,0.2-0.3,0.2
			c0,0-0.1,0-0.1-0.1l0.1,0.1c-0.2,0,0-0.2-0.1,0c0.1-0.2-0.1,0.1,0,0c0-0.1,0-0.1,0.1-0.2c0.1-0.1,0.1-0.1,0,0c-0.1,0-0.1,0,0,0
			c-0.1,0.1-0.1,0,0.1,0c-0.2,0,0,0,0,0c-0.1,0,0.2,0.1,0,0c0.1,0,0.1,0.2,0,0c0,0.1-0.1,0.2,0,0.1c-0.3,0.2-0.6,0.3-0.9,0.5
			c0.2,0,0.4,0,0.7,0C337.1,274.5,337.1,272.4,335.7,272.5L335.7,272.5z"/>
	</g>
</g>
<g>
	<g>
		<path fill="#212121" d="M268.4,175.8c-1.4-0.3-2.8,0.7-2.8,2.2c0,1.3,1.3,2.2,2.7,2.1c1.5-0.2,2.2-1.9,1.5-3.2
			c-0.7-1.3-2.7-1.4-3.6-0.2c-0.8,1.2-0.2,2.8,1.2,3.1c1.3,0.2,2.7-0.7,2.6-2.2c-0.2-1.5-1.7-2.5-3-1.8c-1.2,0.6-1.6,2.3-0.7,3.3
			c0.9,1,2.8,0.8,3.5-0.4c0.4-0.7,0.2-1.6-0.2-2.2c-0.5-0.7-1.3-0.9-2.1-0.7c-0.6,0.1-0.8,0.7-0.7,1.2c0.2,0.6,0.7,0.8,1.2,0.7
			c-0.1,0-0.2,0-0.2,0c0.1,0,0.1,0,0.2,0.1c-0.1-0.1,0.2,0.1,0,0c0,0,0.1,0.1,0,0.1c0-0.1,0-0.1,0,0s0,0.1,0,0l0.1-0.1
			c0-0.1,0,0,0,0s0.2-0.1,0,0c-0.1,0.1,0,0,0,0c-0.1,0-0.1,0-0.2,0c-0.2,0,0,0,0.1,0c0,0-0.2,0-0.1,0c0.2,0-0.1,0-0.1,0
			s-0.1-0.1,0,0c0,0,0.1,0.1,0,0c-0.1-0.1,0.2,0.2,0,0.1l0,0c-0.1,0.1,0.1-0.1,0-0.1c0,0-0.1,0.1,0,0c0,0.1,0,0,0,0s0.1-0.1,0,0
			c0,0-0.2,0,0,0c0.1,0,0,0,0,0c-0.1,0,0-0.1,0,0c0,0,0.1,0.1,0,0c0.1,0.2,0,0,0.1,0.2c0-0.2,0.1,0.1,0-0.1c0,0,0.1-0.2,0,0
			c-0.1,0.1,0,0,0,0c0.1,0,0.1-0.1,0,0c-0.1,0.1,0.1,0,0,0c0,0-0.2,0.1-0.1,0c0.1,0-0.1,0-0.1,0s0.2,0,0,0c-0.2,0,0,0,0,0
			s-0.1-0.1-0.1,0c0.1,0.1,0.1,0.2,0.2,0.2c-0.1-0.1,0-0.1,0-0.1s0,0,0,0.1c0,0.1,0,0,0,0V178c-0.1,0.1,0.1,0,0,0c-0.2,0,0,0,0,0
			s0,0,0.1,0.1h-0.1c-0.1-0.1,0,0,0,0v0.1c0-0.1-0.1,0.2,0,0l0.1-0.1c-0.2,0.1,0,0.1,0,0c0,0-0.2,0-0.1,0c0.1,0-0.1,0-0.1,0
			c-0.1,0,0,0,0,0c-0.1,0-0.1,0-0.2-0.1c0.2,0.1-0.2-0.1-0.1,0c0.1,0.1,0,0,0-0.1c0,0,0.1,0.2,0,0c0,0.2,0,0.2,0.1,0.1
			c0,0.1,0-0.1,0.1-0.1l0.1-0.1c0,0,0.2-0.1,0.1,0c-0.1,0,0.2,0,0,0C269.1,178.1,269.7,176.1,268.4,175.8L268.4,175.8z"/>
	</g>
</g>
<g>
	<g>
		<path fill="#212121" d="M395.1,90.4c-0.1-0.2-0.2-0.2-0.2-0.4c-0.4-0.7-1.3-0.7-1.8,0c-0.8,1.2,0,3,1.4,3.2
			c1.6,0.2,2.9-1.7,1.9-3.1c-0.9-1.3-3-1.2-3.6,0.4s0.8,3,2.4,2.7c1.8-0.4,2-2.9,0.4-3.7c-1.2-0.7-2.2,1.2-1.1,1.8
			c0.1,0,0.1,0.1,0,0s0-0.1,0,0c-0.1-0.2,0,0.1,0,0s0-0.1,0,0s0,0.1,0,0c0,0,0.1-0.2,0-0.1s0-0.1,0,0c0.1,0-0.2,0.1,0,0
			c-0.1,0-0.2,0,0,0c0.1,0,0.1,0.1,0,0c0,0,0.1,0,0.1,0.1c-0.1-0.1,0-0.1,0,0s0.1-0.1,0,0c0,0-0.1,0.2,0,0.1c0.1-0.2,0,0,0,0
			s-0.2,0.1,0,0c0.1-0.1-0.1,0-0.2,0c0.1,0,0.1,0,0,0c0.1,0,0.2,0,0.2,0.1c-0.1-0.1-0.1,0,0,0c-0.1,0-0.1-0.1-0.1-0.1
			c0.1,0.1,0,0.1,0,0v-0.1c0,0-0.1,0.1,0,0.1c0.1-0.1,0,0,0,0c-0.1,0-0.1,0,0,0h0.1c0.1,0,0,0,0,0c0.1,0,0.1,0,0.2,0.1
			c-0.1,0-0.1-0.1,0,0c-0.1-0.1-0.1-0.1,0,0v-0.1c0,0.1,0,0.1,0,0.1c0-0.1-0.1,0.1,0,0c0.1-0.1-0.1,0.2,0.1-0.1c-0.6,0-1.2,0-1.8,0
			c0.1,0.2,0.2,0.2,0.2,0.4C394,92.6,395.8,91.5,395.1,90.4L395.1,90.4z"/>
	</g>
</g>
<g>
	<g>
		<path fill="#212121" d="M481.6,109.6c-0.6-0.6-1.4-0.7-2.1-0.2c-0.7,0.4-1,1.4-0.6,2.2c0.4,0.7,1.2,1.1,2,0.8
			c0.9-0.2,1.3-1.2,1.1-2.1c-0.2-0.7-0.9-1.4-1.7-1.3c-0.9,0.1-1.7,0.9-1.7,1.8c0,0.9,0.8,1.7,1.7,1.7c0.8,0,1.6-0.5,1.7-1.3
			c0.2-0.9-0.4-1.9-1.3-2.1c-1-0.2-1.9,0.3-2.2,1.2c-0.2,0.5,0.2,1.2,0.7,1.2c0.6,0.2,1.1-0.2,1.2-0.7c0,0.1-0.1,0.2-0.2,0.2
			c-0.1,0-0.1,0,0.1,0c-0.1,0-0.1,0-0.2,0c0.2,0-0.1-0.1-0.2-0.2c-0.1-0.1,0-0.2,0-0.2c0,0.1,0,0.2,0,0c0.1-0.1,0.2-0.2,0.2-0.2
			c0.1,0,0.2,0,0.2,0c0.2,0.1,0.2,0.5-0.1,0.6c-0.2,0.1-0.3-0.1-0.4-0.2c0.1,0.1,0,0,0-0.1s0.1-0.2,0.1-0.2c0.1-0.1,0.2-0.2,0.3-0.2
			c0.1,0,0.2,0,0.1,0c-0.1,0,0.1,0.1,0.2,0.2c0.2,0.2,0,0.4-0.1,0.6c-0.1,0.1-0.1,0.1,0,0h-0.1c-0.2,0-0.2,0-0.4-0.1
			C481.1,112,482.5,110.6,481.6,109.6L481.6,109.6z"/>
	</g>
</g>
</svg>
